<svg width="219" height="61" viewBox="0 0 219 61" fill="none" xmlns="http://www.w3.org/2000/svg">
<ellipse cx="76" cy="22" rx="19" ry="18" fill="#DC7326"/>
<path d="M7.25 20.6C7.25 21.9 7.56667 23.0333 8.2 24C8.83333 24.9667 9.6 25.7833 10.5 26.45C11.4 27.0833 12.6667 27.9 14.3 28.9C16.0333 29.9333 17.3833 30.8 18.35 31.5C19.3167 32.2 20.1333 33.1 20.8 34.2C21.5 35.2667 21.85 36.55 21.85 38.05C21.85 39.65 21.45 41.1 20.65 42.4C19.85 43.7 18.6667 44.7333 17.1 45.5C15.5667 46.2333 13.7167 46.6 11.55 46.6C8.98333 46.6 6.63333 46.0167 4.5 44.85C4.33333 44.75 4.21667 44.6333 4.15 44.5C4.11667 44.3667 4.08333 44.1667 4.05 43.9L3.4 37.1C3.36667 36.9667 3.43333 36.8833 3.6 36.85C3.8 36.8167 3.91667 36.8667 3.95 37C4.48333 39.4 5.46667 41.4667 6.9 43.2C8.36667 44.9333 10.3 45.8 12.7 45.8C14.3667 45.8 15.7667 45.35 16.9 44.45C18.0667 43.5167 18.65 42.05 18.65 40.05C18.65 38.55 18.3167 37.25 17.65 36.15C16.9833 35.05 16.1667 34.15 15.2 33.45C14.2667 32.7167 12.9833 31.8667 11.35 30.9C9.75 29.9333 8.48333 29.1 7.55 28.4C6.65 27.7 5.88333 26.8167 5.25 25.75C4.61667 24.6833 4.3 23.4333 4.3 22C4.3 20.3333 4.73333 18.9167 5.6 17.75C6.5 16.55 7.65 15.6667 9.05 15.1C10.4833 14.5 12 14.2 13.6 14.2C15.5667 14.2 17.5167 14.6 19.45 15.4C19.95 15.5667 20.2 15.85 20.2 16.25L20.55 22C20.55 22.1333 20.4667 22.2 20.3 22.2C20.1333 22.2 20.0333 22.1333 20 22C19.7333 20.2667 19.0167 18.6667 17.85 17.2C16.6833 15.7 15 14.95 12.8 14.95C10.9333 14.95 9.53333 15.5 8.6 16.6C7.7 17.6667 7.25 19 7.25 20.6ZM33.0605 41.75C33.0605 42.8167 33.1772 43.6 33.4105 44.1C33.6439 44.5667 34.0939 44.9 34.7605 45.1C35.4605 45.3 36.5439 45.4 38.0105 45.4C38.1105 45.4 38.1605 45.5 38.1605 45.7C38.1605 45.9 38.1105 46 38.0105 46C36.8105 46 35.8939 45.9833 35.2605 45.95L31.5605 45.9L28.6105 45.95C28.0439 45.9833 27.2772 46 26.3105 46C26.2439 46 26.2105 45.9 26.2105 45.7C26.2105 45.5 26.2439 45.4 26.3105 45.4C27.4105 45.4 28.2105 45.3167 28.7105 45.15C29.2105 44.9833 29.5439 44.6667 29.7105 44.2C29.9105 43.7 30.0105 42.95 30.0105 41.95V26.65C30.0105 25.65 29.9105 24.9167 29.7105 24.45C29.5439 23.9833 29.1939 23.6667 28.6605 23.5C28.1605 23.3 27.3772 23.2 26.3105 23.2C26.2439 23.2 26.2105 23.1 26.2105 22.9C26.2105 22.7 26.2439 22.6 26.3105 22.6L28.5605 22.65C29.8272 22.7167 30.8105 22.75 31.5105 22.75C32.0772 22.75 32.6105 22.7333 33.1105 22.7C33.6439 22.6667 34.0939 22.6333 34.4605 22.6C35.4939 22.5 36.4605 22.45 37.3605 22.45C42.8605 22.45 45.6105 24.4833 45.6105 28.55C45.6105 30.15 45.1939 31.5 44.3605 32.6C43.5605 33.6667 42.5272 34.4667 41.2605 35C40.0272 35.5333 38.7439 35.8 37.4105 35.8C36.5105 35.8 35.7772 35.7333 35.2105 35.6C35.1439 35.6 35.1105 35.5167 35.1105 35.35C35.1105 35.0833 35.1939 34.95 35.3605 34.95C35.8605 35.05 36.3772 35.1 36.9105 35.1C38.3772 35.1 39.6105 34.6333 40.6105 33.7C41.6439 32.7333 42.1605 31.35 42.1605 29.55C42.1605 27.45 41.6105 25.8667 40.5105 24.8C39.4439 23.7 37.9939 23.15 36.1605 23.15C35.3272 23.15 34.6939 23.2167 34.2605 23.35C33.8605 23.4833 33.5605 23.8 33.3605 24.3C33.1605 24.8 33.0605 25.6167 33.0605 26.75V41.75ZM61.4063 46.6C59.0729 46.6 56.9896 46.05 55.1563 44.95C53.3563 43.85 51.9563 42.3667 50.9562 40.5C49.9563 38.6333 49.4563 36.6167 49.4563 34.45C49.4563 31.85 50.1229 29.6167 51.4563 27.75C52.8229 25.85 54.5396 24.4167 56.6063 23.45C58.7063 22.4833 60.8396 22 63.0063 22C65.3396 22 67.3896 22.5833 69.1563 23.75C70.9563 24.8833 72.3229 26.3667 73.2563 28.2C74.2229 30.0333 74.7063 31.95 74.7063 33.95C74.7063 36.1833 74.1063 38.2833 72.9062 40.25C71.7063 42.1833 70.0896 43.7333 68.0563 44.9C66.0229 46.0333 63.8063 46.6 61.4063 46.6ZM62.7063 45.55C65.3063 45.55 67.3729 44.6333 68.9063 42.8C70.4729 40.9667 71.2563 38.4333 71.2563 35.2C71.2563 32.9667 70.8563 30.9333 70.0563 29.1C69.2896 27.2667 68.1563 25.8 66.6563 24.7C65.1563 23.6 63.3729 23.05 61.3063 23.05C58.6396 23.05 56.5729 23.95 55.1063 25.75C53.6396 27.5167 52.9063 30 52.9063 33.2C52.9063 35.5 53.2896 37.5833 54.0563 39.45C54.8563 41.3167 55.9896 42.8 57.4563 43.9C58.9563 45 60.7063 45.55 62.7063 45.55ZM103.664 45.4C103.73 45.4 103.764 45.5 103.764 45.7C103.764 45.9 103.73 46 103.664 46H97.8137C97.2137 46 96.147 45 94.6137 43C93.1137 41 91.297 38.2333 89.1637 34.7C88.5303 34.8333 87.8137 34.9 87.0137 34.9C86.1803 34.9 85.547 34.8667 85.1137 34.8V41.95C85.1137 42.9833 85.197 43.7333 85.3637 44.2C85.5303 44.6667 85.8637 44.9833 86.3637 45.15C86.8637 45.3167 87.6803 45.4 88.8137 45.4C88.8803 45.4 88.9137 45.5 88.9137 45.7C88.9137 45.9 88.8803 46 88.8137 46C87.8803 46 87.1637 45.9833 86.6637 45.95L83.5137 45.9L80.5637 45.95C79.997 45.9833 79.2303 46 78.2637 46C78.197 46 78.1637 45.9 78.1637 45.7C78.1637 45.5 78.197 45.4 78.2637 45.4C79.3637 45.4 80.1637 45.3167 80.6637 45.15C81.197 44.9833 81.5637 44.6667 81.7637 44.2C81.9637 43.7 82.0637 42.95 82.0637 41.95V26.65C82.0637 25.65 81.9637 24.9167 81.7637 24.45C81.597 23.9833 81.247 23.6667 80.7137 23.5C80.2137 23.3 79.4137 23.2 78.3137 23.2C78.247 23.2 78.2137 23.1 78.2137 22.9C78.2137 22.7 78.247 22.6 78.3137 22.6L80.6137 22.65C81.8137 22.7167 82.7803 22.75 83.5137 22.75C84.1137 22.75 84.6637 22.7333 85.1637 22.7C85.697 22.6667 86.147 22.6333 86.5137 22.6C87.547 22.5 88.5303 22.45 89.4637 22.45C91.6303 22.45 93.2803 22.8667 94.4137 23.7C95.547 24.5333 96.1137 25.7333 96.1137 27.3C96.1137 28.6333 95.7303 29.8667 94.9637 31C94.197 32.1333 93.1637 33.05 91.8637 33.75C93.7303 36.8167 95.297 39.1833 96.5637 40.85C97.8637 42.4833 99.047 43.65 100.114 44.35C101.214 45.05 102.397 45.4 103.664 45.4ZM85.1137 33.9C85.7137 34 86.4637 34.05 87.3637 34.05C89.4303 34.05 90.8637 33.6 91.6637 32.7C92.497 31.7667 92.9137 30.4167 92.9137 28.65C92.9137 24.9833 91.3303 23.15 88.1637 23.15C86.897 23.15 86.0637 23.4167 85.6637 23.95C85.297 24.4833 85.1137 25.4167 85.1137 26.75V33.9ZM109.355 23.25C108.089 23.25 107.089 23.4333 106.355 23.8C105.622 24.1333 105.039 24.7167 104.605 25.55C104.205 26.3833 103.889 27.5667 103.655 29.1C103.655 29.1667 103.555 29.2 103.355 29.2C103.189 29.2 103.105 29.1667 103.105 29.1C103.205 28.3333 103.322 27.1 103.455 25.4C103.589 23.7 103.655 22.4 103.655 21.5C103.655 21.3333 103.755 21.25 103.955 21.25C104.155 21.25 104.255 21.3333 104.255 21.5C104.255 21.9333 104.505 22.2167 105.005 22.35C105.505 22.45 106.122 22.5 106.855 22.5C109.789 22.5667 112.305 22.6 114.405 22.6L118.755 22.55C119.355 22.5167 120.139 22.5 121.105 22.5C122.305 22.5 123.189 22.4333 123.755 22.3C124.322 22.1333 124.689 21.8 124.855 21.3C124.922 21.2 125.039 21.15 125.205 21.15C125.372 21.15 125.455 21.2 125.455 21.3C125.255 24.9 125.155 27.5 125.155 29.1C125.155 29.1667 125.055 29.2 124.855 29.2C124.689 29.2 124.605 29.1667 124.605 29.1C124.572 27.6 124.389 26.4333 124.055 25.6C123.755 24.7667 123.239 24.1667 122.505 23.8C121.772 23.4333 120.755 23.25 119.455 23.25C118.022 23.25 117.072 23.4833 116.605 23.95C116.139 24.3833 115.905 25.2833 115.905 26.65V41.95C115.905 42.9833 116.005 43.7333 116.205 44.2C116.405 44.6667 116.789 44.9833 117.355 45.15C117.922 45.3167 118.855 45.4 120.155 45.4C120.255 45.4 120.305 45.5 120.305 45.7C120.305 45.9 120.255 46 120.155 46C119.122 46 118.322 45.9833 117.755 45.95L114.255 45.9L110.905 45.95C110.305 45.9833 109.472 46 108.405 46C108.339 46 108.305 45.9 108.305 45.7C108.305 45.5 108.339 45.4 108.405 45.4C109.672 45.4 110.605 45.3167 111.205 45.15C111.805 44.9833 112.205 44.6667 112.405 44.2C112.639 43.7 112.755 42.95 112.755 41.95V26.55C112.755 25.5833 112.672 24.8833 112.505 24.45C112.372 23.9833 112.072 23.6667 111.605 23.5C111.139 23.3333 110.389 23.25 109.355 23.25ZM144.96 46.6C141.86 46.6 139.093 45.8833 136.66 44.45C134.26 42.9833 132.393 41.0167 131.06 38.55C129.76 36.05 129.11 33.3333 129.11 30.4C129.11 26.9667 129.977 24.0333 131.71 21.6C133.443 19.1333 135.66 17.2833 138.36 16.05C141.093 14.8167 143.877 14.2 146.71 14.2C149.877 14.2 152.66 14.95 155.06 16.45C157.46 17.9167 159.293 19.8667 160.56 22.3C161.86 24.7333 162.51 27.3167 162.51 30.05C162.51 33.0833 161.71 35.8667 160.11 38.4C158.51 40.9333 156.36 42.9333 153.66 44.4C150.993 45.8667 148.093 46.6 144.96 46.6ZM146.71 45.55C148.977 45.55 151.01 45 152.81 43.9C154.643 42.8 156.077 41.1833 157.11 39.05C158.177 36.9167 158.71 34.3833 158.71 31.45C158.71 28.3167 158.127 25.5333 156.96 23.1C155.793 20.6667 154.143 18.7667 152.01 17.4C149.91 16.0333 147.443 15.35 144.61 15.35C140.943 15.35 138.077 16.5333 136.01 18.9C133.943 21.2667 132.91 24.5167 132.91 28.65C132.91 31.7833 133.493 34.65 134.66 37.25C135.827 39.8167 137.46 41.85 139.56 43.35C141.66 44.8167 144.043 45.55 146.71 45.55ZM188.591 27.5C188.591 25.8333 188.325 24.7 187.791 24.1C187.258 23.5 186.225 23.2 184.691 23.2C184.591 23.2 184.541 23.1 184.541 22.9C184.541 22.7 184.591 22.6 184.691 22.6L186.691 22.65C187.691 22.7167 188.491 22.75 189.091 22.75C189.558 22.75 190.258 22.7167 191.191 22.65L193.091 22.6C193.158 22.6 193.191 22.7 193.191 22.9C193.191 23.1 193.158 23.2 193.091 23.2C191.758 23.2 190.841 23.5 190.341 24.1C189.875 24.7 189.641 25.8333 189.641 27.5V36.8C189.641 39.9 188.775 42.3167 187.041 44.05C185.308 45.7833 182.975 46.65 180.041 46.65C178.175 46.65 176.475 46.2833 174.941 45.55C173.408 44.7833 172.191 43.7 171.291 42.3C170.391 40.9 169.941 39.2333 169.941 37.3V26.65C169.941 25.65 169.841 24.9167 169.641 24.45C169.475 23.9833 169.125 23.6667 168.591 23.5C168.091 23.3 167.308 23.2 166.241 23.2C166.141 23.2 166.091 23.1 166.091 22.9C166.091 22.7 166.141 22.6 166.241 22.6L168.491 22.65C169.691 22.7167 170.641 22.75 171.341 22.75C172.175 22.75 173.225 22.7167 174.491 22.65L176.641 22.6C176.741 22.6 176.791 22.7 176.791 22.9C176.791 23.1 176.741 23.2 176.641 23.2C175.575 23.2 174.775 23.3 174.241 23.5C173.708 23.7 173.341 24.05 173.141 24.55C172.975 25.0167 172.891 25.75 172.891 26.75V36C172.891 39.1 173.658 41.4 175.191 42.9C176.758 44.3667 178.758 45.1 181.191 45.1C183.491 45.1 185.291 44.4 186.591 43C187.925 41.5667 188.591 39.5333 188.591 36.9V27.5ZM201.348 23.25C200.081 23.25 199.081 23.4333 198.348 23.8C197.614 24.1333 197.031 24.7167 196.598 25.55C196.198 26.3833 195.881 27.5667 195.648 29.1C195.648 29.1667 195.548 29.2 195.348 29.2C195.181 29.2 195.098 29.1667 195.098 29.1C195.198 28.3333 195.314 27.1 195.448 25.4C195.581 23.7 195.648 22.4 195.648 21.5C195.648 21.3333 195.748 21.25 195.948 21.25C196.148 21.25 196.248 21.3333 196.248 21.5C196.248 21.9333 196.498 22.2167 196.998 22.35C197.498 22.45 198.114 22.5 198.848 22.5C201.781 22.5667 204.298 22.6 206.398 22.6L210.748 22.55C211.348 22.5167 212.131 22.5 213.098 22.5C214.298 22.5 215.181 22.4333 215.748 22.3C216.314 22.1333 216.681 21.8 216.848 21.3C216.914 21.2 217.031 21.15 217.198 21.15C217.364 21.15 217.448 21.2 217.448 21.3C217.248 24.9 217.148 27.5 217.148 29.1C217.148 29.1667 217.048 29.2 216.848 29.2C216.681 29.2 216.598 29.1667 216.598 29.1C216.564 27.6 216.381 26.4333 216.048 25.6C215.748 24.7667 215.231 24.1667 214.498 23.8C213.764 23.4333 212.748 23.25 211.448 23.25C210.014 23.25 209.064 23.4833 208.598 23.95C208.131 24.3833 207.898 25.2833 207.898 26.65V41.95C207.898 42.9833 207.998 43.7333 208.198 44.2C208.398 44.6667 208.781 44.9833 209.348 45.15C209.914 45.3167 210.848 45.4 212.148 45.4C212.248 45.4 212.298 45.5 212.298 45.7C212.298 45.9 212.248 46 212.148 46C211.114 46 210.314 45.9833 209.748 45.95L206.248 45.9L202.898 45.95C202.298 45.9833 201.464 46 200.398 46C200.331 46 200.298 45.9 200.298 45.7C200.298 45.5 200.331 45.4 200.398 45.4C201.664 45.4 202.598 45.3167 203.198 45.15C203.798 44.9833 204.198 44.6667 204.398 44.2C204.631 43.7 204.748 42.95 204.748 41.95V26.55C204.748 25.5833 204.664 24.8833 204.498 24.45C204.364 23.9833 204.064 23.6667 203.598 23.5C203.131 23.3333 202.381 23.25 201.348 23.25Z" fill="white"/>
</svg>
