<svg width="210" height="58" viewBox="0 0 210 58" fill="none" xmlns="http://www.w3.org/2000/svg">
<ellipse cx="76" cy="22" rx="19" ry="18" fill="#DC7326"/>
<path d="M6.96 19.616C6.96 20.864 7.264 21.952 7.872 22.88C8.48 23.808 9.216 24.592 10.08 25.232C10.944 25.84 12.16 26.624 13.728 27.584C15.392 28.576 16.688 29.408 17.616 30.08C18.544 30.752 19.328 31.616 19.968 32.672C20.64 33.696 20.976 34.928 20.976 36.368C20.976 37.904 20.592 39.296 19.824 40.544C19.056 41.792 17.92 42.784 16.416 43.52C14.944 44.224 13.168 44.576 11.088 44.576C8.624 44.576 6.368 44.016 4.32 42.896C4.16 42.8 4.048 42.688 3.984 42.56C3.952 42.432 3.92 42.24 3.888 41.984L3.264 35.456C3.232 35.328 3.296 35.248 3.456 35.216C3.648 35.184 3.76 35.232 3.792 35.36C4.304 37.664 5.248 39.648 6.624 41.312C8.032 42.976 9.888 43.808 12.192 43.808C13.792 43.808 15.136 43.376 16.224 42.512C17.344 41.616 17.904 40.208 17.904 38.288C17.904 36.848 17.584 35.6 16.944 34.544C16.304 33.488 15.52 32.624 14.592 31.952C13.696 31.248 12.464 30.432 10.896 29.504C9.36 28.576 8.144 27.776 7.248 27.104C6.384 26.432 5.648 25.584 5.04 24.56C4.432 23.536 4.128 22.336 4.128 20.96C4.128 19.36 4.544 18 5.376 16.88C6.24 15.728 7.344 14.88 8.688 14.336C10.064 13.76 11.52 13.472 13.056 13.472C14.944 13.472 16.816 13.856 18.672 14.624C19.152 14.784 19.392 15.056 19.392 15.44L19.728 20.96C19.728 21.088 19.648 21.152 19.488 21.152C19.328 21.152 19.232 21.088 19.2 20.96C18.944 19.296 18.256 17.76 17.136 16.352C16.016 14.912 14.4 14.192 12.288 14.192C10.496 14.192 9.152 14.72 8.256 15.776C7.392 16.8 6.96 18.08 6.96 19.616ZM31.7381 39.92C31.7381 40.944 31.8501 41.696 32.0741 42.176C32.2981 42.624 32.7301 42.944 33.3701 43.136C34.0421 43.328 35.0821 43.424 36.4901 43.424C36.5861 43.424 36.6341 43.52 36.6341 43.712C36.6341 43.904 36.5861 44 36.4901 44C35.3381 44 34.4581 43.984 33.8501 43.952L30.2981 43.904L27.4661 43.952C26.9221 43.984 26.1861 44 25.2581 44C25.1941 44 25.1621 43.904 25.1621 43.712C25.1621 43.52 25.1941 43.424 25.2581 43.424C26.3141 43.424 27.0821 43.344 27.5621 43.184C28.0421 43.024 28.3621 42.72 28.5221 42.272C28.7141 41.792 28.8101 41.072 28.8101 40.112V25.424C28.8101 24.464 28.7141 23.76 28.5221 23.312C28.3621 22.864 28.0261 22.56 27.5141 22.4C27.0341 22.208 26.2821 22.112 25.2581 22.112C25.1941 22.112 25.1621 22.016 25.1621 21.824C25.1621 21.632 25.1941 21.536 25.2581 21.536L27.4181 21.584C28.6341 21.648 29.5781 21.68 30.2501 21.68C30.7941 21.68 31.3061 21.664 31.7861 21.632C32.2981 21.6 32.7301 21.568 33.0821 21.536C34.0741 21.44 35.0021 21.392 35.8661 21.392C41.1461 21.392 43.7861 23.344 43.7861 27.248C43.7861 28.784 43.3861 30.08 42.5861 31.136C41.8181 32.16 40.8261 32.928 39.6101 33.44C38.4261 33.952 37.1941 34.208 35.9141 34.208C35.0501 34.208 34.3461 34.144 33.8021 34.016C33.7381 34.016 33.7061 33.936 33.7061 33.776C33.7061 33.52 33.7861 33.392 33.9461 33.392C34.4261 33.488 34.9221 33.536 35.4341 33.536C36.8421 33.536 38.0261 33.088 38.9861 32.192C39.9781 31.264 40.4741 29.936 40.4741 28.208C40.4741 26.192 39.9461 24.672 38.8901 23.648C37.8661 22.592 36.4741 22.064 34.7141 22.064C33.9141 22.064 33.3061 22.128 32.8901 22.256C32.5061 22.384 32.2181 22.688 32.0261 23.168C31.8341 23.648 31.7381 24.432 31.7381 25.52V39.92ZM58.95 44.576C56.71 44.576 54.71 44.048 52.95 42.992C51.222 41.936 49.878 40.512 48.918 38.72C47.958 36.928 47.478 34.992 47.478 32.912C47.478 30.416 48.118 28.272 49.398 26.48C50.71 24.656 52.358 23.28 54.342 22.352C56.358 21.424 58.406 20.96 60.486 20.96C62.726 20.96 64.694 21.52 66.39 22.64C68.118 23.728 69.43 25.152 70.326 26.912C71.254 28.672 71.718 30.512 71.718 32.432C71.718 34.576 71.142 36.592 69.99 38.48C68.838 40.336 67.286 41.824 65.334 42.944C63.382 44.032 61.254 44.576 58.95 44.576ZM60.198 43.568C62.694 43.568 64.678 42.688 66.15 40.928C67.654 39.168 68.406 36.736 68.406 33.632C68.406 31.488 68.022 29.536 67.254 27.776C66.518 26.016 65.43 24.608 63.99 23.552C62.55 22.496 60.838 21.968 58.854 21.968C56.294 21.968 54.31 22.832 52.902 24.56C51.494 26.256 50.79 28.64 50.79 31.712C50.79 33.92 51.158 35.92 51.894 37.712C52.662 39.504 53.75 40.928 55.158 41.984C56.598 43.04 58.278 43.568 60.198 43.568ZM99.5171 43.424C99.5811 43.424 99.6131 43.52 99.6131 43.712C99.6131 43.904 99.5811 44 99.5171 44H93.9011C93.3251 44 92.3011 43.04 90.8291 41.12C89.3891 39.2 87.6451 36.544 85.5971 33.152C84.9891 33.28 84.3011 33.344 83.5331 33.344C82.7331 33.344 82.1251 33.312 81.7091 33.248V40.112C81.7091 41.104 81.7891 41.824 81.9491 42.272C82.1091 42.72 82.4291 43.024 82.9091 43.184C83.3891 43.344 84.1731 43.424 85.2611 43.424C85.3251 43.424 85.3571 43.52 85.3571 43.712C85.3571 43.904 85.3251 44 85.2611 44C84.3651 44 83.6771 43.984 83.1971 43.952L80.1731 43.904L77.3411 43.952C76.7971 43.984 76.0611 44 75.1331 44C75.0691 44 75.0371 43.904 75.0371 43.712C75.0371 43.52 75.0691 43.424 75.1331 43.424C76.1891 43.424 76.9571 43.344 77.4371 43.184C77.9491 43.024 78.3011 42.72 78.4931 42.272C78.6851 41.792 78.7811 41.072 78.7811 40.112V25.424C78.7811 24.464 78.6851 23.76 78.4931 23.312C78.3331 22.864 77.9971 22.56 77.4851 22.4C77.0051 22.208 76.2371 22.112 75.1811 22.112C75.1171 22.112 75.0851 22.016 75.0851 21.824C75.0851 21.632 75.1171 21.536 75.1811 21.536L77.3891 21.584C78.5411 21.648 79.4691 21.68 80.1731 21.68C80.7491 21.68 81.2771 21.664 81.7571 21.632C82.2691 21.6 82.7011 21.568 83.0531 21.536C84.0451 21.44 84.9891 21.392 85.8851 21.392C87.9651 21.392 89.5491 21.792 90.6371 22.592C91.7251 23.392 92.2691 24.544 92.2691 26.048C92.2691 27.328 91.9011 28.512 91.1651 29.6C90.4291 30.688 89.4371 31.568 88.1891 32.24C89.9811 35.184 91.4851 37.456 92.7011 39.056C93.9491 40.624 95.0851 41.744 96.1091 42.416C97.1651 43.088 98.3011 43.424 99.5171 43.424ZM81.7091 32.384C82.2851 32.48 83.0051 32.528 83.8691 32.528C85.8531 32.528 87.2291 32.096 87.9971 31.232C88.7971 30.336 89.1971 29.04 89.1971 27.344C89.1971 23.824 87.6771 22.064 84.6371 22.064C83.4211 22.064 82.6211 22.32 82.2371 22.832C81.8851 23.344 81.7091 24.24 81.7091 25.52V32.384ZM104.981 22.16C103.765 22.16 102.805 22.336 102.101 22.688C101.397 23.008 100.837 23.568 100.421 24.368C100.037 25.168 99.7333 26.304 99.5093 27.776C99.5093 27.84 99.4133 27.872 99.2213 27.872C99.0613 27.872 98.9813 27.84 98.9813 27.776C99.0773 27.04 99.1893 25.856 99.3173 24.224C99.4453 22.592 99.5093 21.344 99.5093 20.48C99.5093 20.32 99.6053 20.24 99.7973 20.24C99.9893 20.24 100.085 20.32 100.085 20.48C100.085 20.896 100.325 21.168 100.805 21.296C101.285 21.392 101.877 21.44 102.581 21.44C105.397 21.504 107.813 21.536 109.829 21.536L114.005 21.488C114.581 21.456 115.333 21.44 116.261 21.44C117.413 21.44 118.261 21.376 118.805 21.248C119.349 21.088 119.701 20.768 119.861 20.288C119.925 20.192 120.037 20.144 120.197 20.144C120.357 20.144 120.437 20.192 120.437 20.288C120.245 23.744 120.149 26.24 120.149 27.776C120.149 27.84 120.053 27.872 119.861 27.872C119.701 27.872 119.621 27.84 119.621 27.776C119.589 26.336 119.413 25.216 119.093 24.416C118.805 23.616 118.309 23.04 117.605 22.688C116.901 22.336 115.925 22.16 114.677 22.16C113.301 22.16 112.389 22.384 111.941 22.832C111.493 23.248 111.269 24.112 111.269 25.424V40.112C111.269 41.104 111.365 41.824 111.557 42.272C111.749 42.72 112.117 43.024 112.661 43.184C113.205 43.344 114.101 43.424 115.349 43.424C115.445 43.424 115.493 43.52 115.493 43.712C115.493 43.904 115.445 44 115.349 44C114.357 44 113.589 43.984 113.045 43.952L109.685 43.904L106.469 43.952C105.893 43.984 105.093 44 104.069 44C104.005 44 103.973 43.904 103.973 43.712C103.973 43.52 104.005 43.424 104.069 43.424C105.285 43.424 106.181 43.344 106.757 43.184C107.333 43.024 107.717 42.72 107.909 42.272C108.133 41.792 108.245 41.072 108.245 40.112V25.328C108.245 24.4 108.165 23.728 108.005 23.312C107.877 22.864 107.589 22.56 107.141 22.4C106.693 22.24 105.973 22.16 104.981 22.16ZM139.162 44.576C136.186 44.576 133.53 43.888 131.194 42.512C128.89 41.104 127.098 39.216 125.818 36.848C124.57 34.448 123.946 31.84 123.946 29.024C123.946 25.728 124.778 22.912 126.442 20.576C128.106 18.208 130.234 16.432 132.826 15.248C135.45 14.064 138.122 13.472 140.842 13.472C143.882 13.472 146.554 14.192 148.858 15.632C151.162 17.04 152.922 18.912 154.138 21.248C155.386 23.584 156.01 26.064 156.01 28.688C156.01 31.6 155.242 34.272 153.706 36.704C152.17 39.136 150.106 41.056 147.514 42.464C144.954 43.872 142.17 44.576 139.162 44.576ZM140.842 43.568C143.018 43.568 144.97 43.04 146.698 41.984C148.458 40.928 149.834 39.376 150.826 37.328C151.85 35.28 152.362 32.848 152.362 30.032C152.362 27.024 151.802 24.352 150.682 22.016C149.562 19.68 147.978 17.856 145.93 16.544C143.914 15.232 141.546 14.576 138.826 14.576C135.306 14.576 132.554 15.712 130.57 17.984C128.586 20.256 127.594 23.376 127.594 27.344C127.594 30.352 128.154 33.104 129.274 35.6C130.394 38.064 131.962 40.016 133.978 41.456C135.994 42.864 138.282 43.568 140.842 43.568ZM181.048 26.24C181.048 24.64 180.792 23.552 180.28 22.976C179.768 22.4 178.776 22.112 177.304 22.112C177.208 22.112 177.16 22.016 177.16 21.824C177.16 21.632 177.208 21.536 177.304 21.536L179.224 21.584C180.184 21.648 180.952 21.68 181.528 21.68C181.976 21.68 182.648 21.648 183.544 21.584L185.368 21.536C185.432 21.536 185.464 21.632 185.464 21.824C185.464 22.016 185.432 22.112 185.368 22.112C184.088 22.112 183.208 22.4 182.728 22.976C182.28 23.552 182.056 24.64 182.056 26.24V35.168C182.056 38.144 181.224 40.464 179.56 42.128C177.896 43.792 175.656 44.624 172.84 44.624C171.048 44.624 169.416 44.272 167.944 43.568C166.472 42.832 165.304 41.792 164.44 40.448C163.576 39.104 163.144 37.504 163.144 35.648V25.424C163.144 24.464 163.048 23.76 162.856 23.312C162.696 22.864 162.36 22.56 161.848 22.4C161.368 22.208 160.616 22.112 159.592 22.112C159.496 22.112 159.448 22.016 159.448 21.824C159.448 21.632 159.496 21.536 159.592 21.536L161.752 21.584C162.904 21.648 163.816 21.68 164.488 21.68C165.288 21.68 166.296 21.648 167.512 21.584L169.576 21.536C169.672 21.536 169.72 21.632 169.72 21.824C169.72 22.016 169.672 22.112 169.576 22.112C168.552 22.112 167.784 22.208 167.272 22.4C166.76 22.592 166.408 22.928 166.216 23.408C166.056 23.856 165.976 24.56 165.976 25.52V34.4C165.976 37.376 166.712 39.584 168.184 41.024C169.688 42.432 171.608 43.136 173.944 43.136C176.152 43.136 177.88 42.464 179.128 41.12C180.408 39.744 181.048 37.792 181.048 35.264V26.24ZM193.294 22.16C192.078 22.16 191.118 22.336 190.414 22.688C189.71 23.008 189.15 23.568 188.734 24.368C188.35 25.168 188.046 26.304 187.822 27.776C187.822 27.84 187.726 27.872 187.534 27.872C187.374 27.872 187.294 27.84 187.294 27.776C187.39 27.04 187.502 25.856 187.63 24.224C187.758 22.592 187.822 21.344 187.822 20.48C187.822 20.32 187.918 20.24 188.11 20.24C188.302 20.24 188.398 20.32 188.398 20.48C188.398 20.896 188.638 21.168 189.118 21.296C189.598 21.392 190.19 21.44 190.894 21.44C193.71 21.504 196.126 21.536 198.142 21.536L202.318 21.488C202.894 21.456 203.646 21.44 204.574 21.44C205.726 21.44 206.574 21.376 207.118 21.248C207.662 21.088 208.014 20.768 208.174 20.288C208.238 20.192 208.35 20.144 208.51 20.144C208.67 20.144 208.75 20.192 208.75 20.288C208.558 23.744 208.462 26.24 208.462 27.776C208.462 27.84 208.366 27.872 208.174 27.872C208.014 27.872 207.934 27.84 207.934 27.776C207.902 26.336 207.726 25.216 207.406 24.416C207.118 23.616 206.622 23.04 205.918 22.688C205.214 22.336 204.238 22.16 202.99 22.16C201.614 22.16 200.702 22.384 200.254 22.832C199.806 23.248 199.582 24.112 199.582 25.424V40.112C199.582 41.104 199.678 41.824 199.87 42.272C200.062 42.72 200.43 43.024 200.974 43.184C201.518 43.344 202.414 43.424 203.662 43.424C203.758 43.424 203.806 43.52 203.806 43.712C203.806 43.904 203.758 44 203.662 44C202.67 44 201.902 43.984 201.358 43.952L197.998 43.904L194.782 43.952C194.206 43.984 193.406 44 192.382 44C192.318 44 192.286 43.904 192.286 43.712C192.286 43.52 192.318 43.424 192.382 43.424C193.598 43.424 194.494 43.344 195.07 43.184C195.646 43.024 196.03 42.72 196.222 42.272C196.446 41.792 196.558 41.072 196.558 40.112V25.328C196.558 24.4 196.478 23.728 196.318 23.312C196.19 22.864 195.902 22.56 195.454 22.4C195.006 22.24 194.286 22.16 193.294 22.16Z" fill="black"/>
</svg>
