<svg width="120" height="111" viewBox="0 0 120 111" fill="none" xmlns="http://www.w3.org/2000/svg">
<path fill-rule="evenodd" clip-rule="evenodd" d="M107.581 62.3125C107.581 64.8104 105.868 66.8542 103.774 66.8542H16.2259C14.1323 66.8542 12.4194 64.8104 12.4194 62.3125V5.54167C12.4194 3.04375 14.1323 1 16.2259 1H103.774C105.868 1 107.581 3.04375 107.581 5.54167V61.1771V62.3125Z" stroke="black" stroke-width="2"/>
<path fill-rule="evenodd" clip-rule="evenodd" d="M109.484 71.3958C109.484 68.8979 107.771 66.8541 105.677 66.8541H14.3226C12.229 66.8541 10.5161 68.8979 10.5161 71.3958L1 105.458C1 107.956 2.7129 110 4.80645 110H115.194C117.287 110 119 107.956 119 105.458L109.484 71.3958Z" stroke="black" stroke-width="2"/>
<path d="M4.8064 98.4187H117.097" stroke="black" stroke-width="2"/>
<path fill-rule="evenodd" clip-rule="evenodd" d="M100.158 55.5C100.158 57.998 98.4451 60.0417 96.3516 60.0417H23.8387C21.7451 60.0417 20.0322 57.998 20.0322 55.5V14.625C20.0322 12.1271 21.7451 10.0834 23.8387 10.0834H96.1613C98.2548 10.0834 99.9677 12.1271 99.9677 14.625L100.158 55.5Z" stroke="black" stroke-width="2"/>
<path d="M42.8706 89.5625H77.1287" stroke="black" stroke-width="2"/>
<path d="M33.7354 89.5625H39.0644" stroke="black" stroke-width="2"/>
<path d="M24.0293 89.5625H29.5487" stroke="black" stroke-width="2"/>
<path d="M14.3225 89.5625H20.0322" stroke="black" stroke-width="2"/>
<path d="M18.5095 80.4791H23.8386" stroke="black" stroke-width="2"/>
<path d="M27.6453 80.4791H33.3549" stroke="black" stroke-width="2"/>
<path d="M37.1614 80.4791H42.8711" stroke="black" stroke-width="2"/>
<path d="M46.6775 80.4791H52.3872" stroke="black" stroke-width="2"/>
<path d="M56.1936 80.4791H61.9033" stroke="black" stroke-width="2"/>
<path d="M65.7095 80.4791H71.4191" stroke="black" stroke-width="2"/>
<path d="M75.2258 80.4791H80.9355" stroke="black" stroke-width="2"/>
<path d="M86.6453 80.4791H92.3549" stroke="black" stroke-width="2"/>
<path d="M96.1614 80.4791H101.871" stroke="black" stroke-width="2"/>
<path d="M90.4517 73.6666H96.1613" stroke="black" stroke-width="2"/>
<path d="M80.9355 73.6666H86.6452" stroke="black" stroke-width="2"/>
<path d="M71.4194 73.6666H77.1291" stroke="black" stroke-width="2"/>
<path d="M61.9031 73.6666H67.6128" stroke="black" stroke-width="2"/>
<path d="M52.3867 73.6666H58.0964" stroke="black" stroke-width="2"/>
<path d="M42.8706 73.6666H48.5803" stroke="black" stroke-width="2"/>
<path d="M33.5454 73.6666H39.0648" stroke="black" stroke-width="2"/>
<path d="M23.8386 73.6666H29.5483" stroke="black" stroke-width="2"/>
<path d="M80.9355 89.5625H86.2646" stroke="black" stroke-width="2"/>
<path d="M90.4517 89.5625H95.971" stroke="black" stroke-width="2"/>
<path d="M99.9678 89.5625H105.677" stroke="black" stroke-width="2"/>
<path d="M51.4359 21.8917L33.9263 42.7833" stroke="black" stroke-width="2"/>
<path d="M39.8257 21.8917L28.9773 32.3375" stroke="black" stroke-width="2"/>
</svg>
