<svg width="92" height="105" viewBox="0 0 92 105" fill="none" xmlns="http://www.w3.org/2000/svg">
<path d="M75.2105 75.7581V100.677C75.2105 102.505 73.7895 104 72.0526 104H4.15789C2.42105 104 1 102.505 1 100.677V4.32258C1 2.49516 2.42105 1 4.15789 1H45.0526L75.2105 31.0694V55.8226" stroke="black" stroke-width="2"/>
<path d="M75.2106 32.3984H48.3685C46.6316 32.3984 45.2106 30.9033 45.2106 29.0758V2.66132" stroke="black" stroke-width="2"/>
<path d="M15.2104 29.2419H35.7368" stroke="black" stroke-width="2"/>
<path d="M15.2104 45.8549H64.1578" stroke="black" stroke-width="2"/>
<path d="M15.2104 57.4839H64.1578" stroke="black" stroke-width="2"/>
<path d="M15.2104 72.4355H53.1052" stroke="black" stroke-width="2"/>
<path d="M15.2104 82.4032H42.0526" stroke="black" stroke-width="2"/>
<path d="M43.6316 99.0161L49.7895 83.4L81.8421 49.6758C82.4737 49.0113 83.579 49.0113 84.3684 49.6758L90.5263 56.1548C91.1579 56.8194 91.1579 57.9823 90.5263 58.8129L58.4737 92.5371L43.6316 99.0161Z" stroke="black" stroke-width="2" stroke-linejoin="round"/>
<path d="M78.2106 53.6629L86.7369 62.6339" stroke="black" stroke-width="2"/>
</svg>
