<svg width="114" height="99" viewBox="0 0 114 99" fill="none" xmlns="http://www.w3.org/2000/svg">
<path d="M23.5013 59.8114C20.5804 63.6439 18.5722 66.199 18.5722 66.199C17.2943 67.4765 17.2943 69.6665 18.5722 70.944L44.6783 97.0418C45.9562 98.3194 48.1469 98.3194 49.4248 97.0418C49.4248 97.0418 51.9806 95.3993 56.3621 91.9318" stroke="white" stroke-width="2"/>
<path d="M48.3284 83.9017L39.748 92.2968" stroke="white" stroke-width="2"/>
<path d="M39.9317 75.5066L31.5339 84.0842" stroke="white" stroke-width="2"/>
<path d="M31.7151 67.2939L23.3174 75.6891" stroke="white" stroke-width="2"/>
<path d="M71.1484 38.2761C73.5217 40.6486 94.6986 66.199 94.6986 66.199C95.9765 67.4765 95.9765 69.6665 94.6986 70.944L68.5925 97.0419C67.3146 98.3194 65.1239 98.3194 63.846 97.0419C63.846 97.0419 48.511 86.4567 27.1515 65.1039C18.9363 56.8913 15.2851 46.3062 16.563 45.0287L42.6691 18.9308C43.5819 18.0183 49.9714 19.4783 55.8134 22.3984" stroke="white" stroke-width="2" stroke-linecap="round"/>
<path d="M90.3165 59.9939C95.4282 53.0588 97.6189 46.1237 96.5235 45.0287L70.4175 18.9308C69.1396 17.6533 57.4557 20.0259 49.058 28.421C45.5893 31.8885 37.7393 37.3636 33.9055 46.3062C33.9055 46.3062 35.9137 49.7737 41.2079 47.7662C49.9708 44.4812 55.9952 41.1961 55.9952 41.1961C55.9952 41.1961 65.1232 44.8462 70.7826 38.4586" stroke="white" stroke-width="2" stroke-linecap="round"/>
<path d="M47.5984 9.07573C48.8763 10.3532 48.8763 12.5433 47.5984 13.8208L13.8248 47.5837C12.5469 48.8612 10.3562 48.8612 9.07827 47.5837L1.95844 40.4661C0.68052 39.1886 0.68052 36.9986 1.95844 35.7211L35.732 1.95814C37.0099 0.680621 39.2006 0.680621 40.4786 1.95814L47.5984 9.07573Z" stroke="white" stroke-width="2"/>
<path d="M66.2192 9.80574C64.9413 11.0833 64.9413 13.2733 66.2192 14.5508L100.175 48.4962C101.453 49.7738 103.644 49.7738 104.922 48.4962L112.042 41.3786C113.32 40.1011 113.32 37.9111 112.042 36.6336L78.0856 2.68815C76.8076 1.41063 74.6169 1.41063 73.339 2.68815L66.2192 9.80574Z" stroke="white" stroke-width="2"/>
<path d="M51.9792 71.1265L73.3388 92.2968" stroke="white" stroke-width="2"/>
<path d="M60.3782 62.7314L81.5551 84.0841" stroke="white" stroke-width="2"/>
<path d="M68.5928 54.5188L89.7697 75.689" stroke="white" stroke-width="2"/>
</svg>
