<svg width="56" height="64" viewBox="0 0 56 64" fill="none" xmlns="http://www.w3.org/2000/svg">
<path d="M28 63C42.9117 63 55 50.9117 55 36C55 21.0883 42.9117 9 28 9C13.0883 9 1 21.0883 1 36C1 50.9117 13.0883 63 28 63Z" stroke="#DC7326" stroke-width="2"/>
<path d="M28 59C40.7025 59 51 48.7025 51 36C51 23.2975 40.7025 13 28 13C15.2975 13 5 23.2975 5 36C5 48.7025 15.2975 59 28 59Z" stroke="#DC7326" stroke-width="2"/>
<path d="M46 36C46 37.7 29.7 39 28 39C26.3 39 25 37.7 25 36C25 34.3 26.3 33 28 33C29.7 33 46 34.3 46 36Z" stroke="#DC7326" stroke-width="2"/>
<path d="M28 13V18" stroke="#DC7326" stroke-width="2"/>
<path d="M28 54V59" stroke="#DC7326" stroke-width="2"/>
<path d="M5 36H10" stroke="#DC7326" stroke-width="2"/>
<path d="M46 36H51" stroke="#DC7326" stroke-width="2"/>
<path d="M31 5H25V9H31V5Z" stroke="#DC7326" stroke-width="2"/>
<path d="M35 3C35 4.1 34.1 5 33 5H23C21.9 5 21 4.1 21 3C21 1.9 21.9 1 23 1H33C34.1 1 35 1.9 35 3Z" stroke="#DC7326" stroke-width="2"/>
</svg>
